<?xml version="1.0" encoding="UTF-8" standalone="no"?>
<svg xmlns="http://www.w3.org/2000/svg" width="24" height="24" viewBox="0 0 24 24">
  <path fill="#25D366" d="M17.498 14.382c-.301-.15-1.767-.867-2.04-.966-.273-.101-.473-.15-.673.15-.197.295-.771.964-.944 1.162-.175.195-.349.21-.646.075-.3-.15-1.263-.465-2.403-1.485-.888-.795-1.484-1.77-1.66-2.07-.174-.3-.019-.465.13-.615.136-.135.301-.345.451-.523.146-.181.194-.301.297-.496.1-.21.049-.375-.025-.524-.075-.15-.672-1.62-.922-2.206-.24-.584-.487-.51-.672-.51-.172-.015-.371-.015-.571-.015-.2 0-.523.074-.797.359-.273.3-1.045 1.02-1.045 2.475s1.07 2.865 1.219 3.075c.149.195 2.105 3.195 5.1 4.485.714.3 1.27.48 1.704.629.714.227 1.365.195 1.88.121.574-.091 1.767-.72 2.016-1.426.255-.705.255-1.29.18-1.425-.074-.135-.27-.21-.57-.345z"/>
  <path fill="#25D366" d="M20.52 3.449C12.831-3.984.106 1.407.101 11.893c0 2.096.549 4.14 1.595 5.945L0 24l6.335-1.652c1.746.943 3.71 1.444 5.71 1.447h.006c7.687 0 13.941-6.245 13.949-13.932-.003-3.722-1.45-7.22-4.08-9.849l-.4-.3zM11.993 21.237h-.005c-2.089-.001-4.143-.583-5.91-1.681l-.426-.262-4.39 1.15 1.17-4.282-.294-.467c-1.229-1.953-1.888-4.213-1.887-6.531.002-6.713 5.484-12.181 12.205-12.181 3.26.002 6.316 1.268 8.623 3.573 2.307 2.308 3.577 5.363 3.574 8.622-.002 6.715-5.482 12.183-12.203 12.183l-.057-.001z"/>
</svg>
